<?xml version="1.0" encoding="UTF-8"?>
<svg id="Capa_2" data-name="Capa 2" xmlns="http://www.w3.org/2000/svg" viewBox="0 0 739.9 203.48">
  <defs>
    <style>
      .cls-1 {
        fill: #0a0b0b;
      }
    </style>
  </defs>
  <g id="Logo_Horizontal_Blanco_Negro_50_" data-name="Logo Horizontal Blanco Negro (50%)">
    <g>
      <g>
        <path class="cls-1" d="M194.29,165.98c13.99-.37,29.27-4.54,40.81-12.55,11-7.64,18.17-18.89,15.03-32.79h-38.68c.41-3.16,1.59-6.14,2.24-9.25,4.21-20.1.16-43.47-10.84-60.78-11.23-17.68-29.19-29.83-48.27-37.8l5.11-12.8h.29c21.1,8.96,40.41,22.11,53.23,41.41,11.06,16.66,16.3,36.08,16,56.12l-.59,9.14h31.99c1.43,4.74,3.13,9.47,3.74,14.43,3.22,26.13-15.51,43.67-37.99,52.36-9.95,3.85-21.03,6.34-31.73,6.13"/>
        <path class="cls-1" d="M134.97,95.93l-3.08,13.39c-4.18-.73-8.32-1.7-12.52-2.3-26.34-3.73-55.34-.9-77.66,14.42-13.05,8.96-22.72,21.9-29.16,36.28L.05,152.58c-.15-.48.05-.9.2-1.35,2.64-7.7,11.09-19.72,16.49-25.96,28.99-33.44,76.99-38.87,118.22-29.35Z"/>
        <path class="cls-1" d="M139.59,83.99c-3.03-.92-5.92-2.53-8.92-3.69-27.69-10.69-56.69-10.38-84.11.95-12.36,5.11-23.63,12.38-34.23,20.44l-8.55-10.83c17.22-13.48,36.96-24.25,58.47-29.1,27.99-6.32,58.33-2.82,83.72,10.46l-6.39,11.76Z"/>
        <path class="cls-1" d="M36.96,198.54c-.13-8.43,1-16.91,3.34-25,7.84-26.98,29.03-42.55,55.69-48.69,11.51-2.66,23.38-3.45,35.19-3.34l1.16,13.95c-28.88-1.02-63.49,5.83-76.24,34.98-3.88,8.88-5.22,18.45-5.47,28.1h-13.67Z"/>
        <path class="cls-1" d="M169.86,47.96l-10.61,8.38c-8.53-7.74-18.93-13.1-30.04-16.14-24.52-6.71-50.82-3.78-75.38,1.08l-2.6-13.19c.11-.39.41-.37.72-.46,4.05-1.15,9.74-1.92,13.99-2.58,33.18-5.13,75.64-4.08,101.59,20.15.43.4,2.59,2.37,2.32,2.76Z"/>
        <path class="cls-1" d="M140.49,161.91c-10.61.8-22,3.65-30.38,10.47-9.43,7.68-12.86,19.22-12.95,31.09h-13.67c-.23-10.78,2.28-21.63,8.02-30.79,8.08-12.88,22.67-20.35,37.28-23.19,1.06-.21,5.33-1.07,6.02-.97"/>
      </g>
      <g>
        <path class="cls-1" d="M371.62,105.94c0,22.59-11.9,33.78-35.8,33.78h-33.18v-67.57h33.18c23.9,0,35.8,11.19,35.8,33.78ZM336.83,125.61c10.89,0,16.34-6.66,16.34-19.67s-5.45-19.67-16.34-19.67h-16.44v39.33h16.44Z"/>
        <path class="cls-1" d="M431.12,111.49v28.24h-17.55v-4.13h-.5c-3.53,3.83-8.67,5.04-14.62,5.04-14.12,0-21.18-5.55-21.18-16.64,0-10.49,7.66-15.63,23.19-15.63,2.42,0,6.96,0,13.11.2v-.81c0-4.24-2.22-5.65-12.4-5.65-5.45,0-11.09.71-17.45,1.71v-13.11c8.27-1.51,13.61-2.32,20.47-2.32,20.27,0,26.93,6.66,26.93,23.09ZM401.67,127.62c9.58,0,11.9-1.61,11.9-5.04v-3.13c-4.34-.1-9.28-.2-12.1-.2-4.34,0-6.76,1.51-6.76,4.13,0,2.92,2.42,4.24,6.96,4.24Z"/>
        <path class="cls-1" d="M472.56,140.63c-8.17,0-12.4-2.82-15.03-4.44h-.81v22.69h-17.45v-44.98c0-18.05,8.98-25.51,27.93-25.51s28.24,7.46,28.24,25.51v1.21c0,18.66-8.07,25.51-22.89,25.51ZM467.22,126.92c7.66,0,10.79-2.72,10.79-12.2v-.4c0-9.48-3.13-12.2-10.79-12.2s-10.49,2.72-10.49,12.2v.4c0,9.48,2.82,12.2,10.49,12.2Z"/>
        <path class="cls-1" d="M554.75,111.49v28.24h-17.55v-4.13h-.5c-3.53,3.83-8.67,5.04-14.62,5.04-14.12,0-21.18-5.55-21.18-16.64,0-10.49,7.66-15.63,23.19-15.63,2.42,0,6.96,0,13.11.2v-.81c0-4.24-2.22-5.65-12.4-5.65-5.44,0-11.09.71-17.45,1.71v-13.11c8.27-1.51,13.61-2.32,20.47-2.32,20.27,0,26.93,6.66,26.93,23.09ZM525.31,127.62c9.58,0,11.9-1.61,11.9-5.04v-3.13c-4.34-.1-9.28-.2-12.1-.2-4.34,0-6.76,1.51-6.76,4.13,0,2.92,2.42,4.24,6.96,4.24Z"/>
        <path class="cls-1" d="M588.23,88.4c18.56,0,26.22,6.55,26.22,21.58v29.75h-17.45v-29.35c0-5.75-2.32-8.27-8.77-8.27s-8.98,2.52-8.98,8.27v29.35h-17.45v-29.75c0-15.03,7.66-21.58,26.42-21.58Z"/>
        <path class="cls-1" d="M649.04,88.4c18.96,0,27.93,8.07,27.93,26.12v21.68c0,17.14-6.86,24.2-29.14,24.2-5.24,0-9.68-.4-16.84-1.31v-12.81c4.34.5,10.69,1.21,15.13,1.21,10.89,0,13.41-2.82,13.41-8.47v-2.82h-.81c-2.62,1.61-6.86,4.44-15.03,4.44-14.82,0-22.89-6.86-22.89-25.51v-1.21c0-18.05,9.28-25.51,28.24-25.51ZM649.04,126.92c7.66,0,10.49-2.72,10.49-12.2v-.4c0-9.48-2.82-12.2-10.49-12.2s-10.79,2.72-10.79,12.2v.4c0,9.48,3.13,12.2,10.79,12.2Z"/>
        <path class="cls-1" d="M711.87,88.4c19.06,0,28.03,7.46,28.03,25.51v1.21c0,18.05-8.97,25.51-28.03,25.51s-28.14-7.46-28.14-25.51v-1.21c0-18.05,9.28-25.51,28.14-25.51ZM711.87,126.92c7.66,0,10.59-2.72,10.59-12.2v-.4c0-9.48-2.92-12.2-10.59-12.2s-10.69,2.72-10.69,12.2v.4c0,9.48,3.13,12.2,10.69,12.2Z"/>
      </g>
    </g>
  </g>
</svg>